<svg xmlns="http://www.w3.org/2000/svg" xmlns:xlink="http://www.w3.org/1999/xlink" fill="none" version="1.1" width="20" height="20" viewBox="0 0 20 20">
    <g class="mysvg"><g><rect class="mysvg" x="0" y="0" width="20" height="20" rx="0" fill="#F39393" fill-opacity="0.00009999999747378752"/></g>
    <g><path class="mysvg" d="M3.1875002449035645,7.43501734375C2.4772944449035643,7.05956734375,2.4773263449035645,6.04226734375,3.1875562449035644,5.666857343749999L9.533210244903565,2.31271034375C9.825590244903564,2.15816404375,10.175470244903565,2.15816874375,10.467850244903564,2.31272334375L16.813100244903566,5.66689734375C17.523300244903567,6.042327343749999,17.523300244903567,7.05961734375,16.813100244903566,7.43505734375L10.467500244903565,10.78949734375C10.175100244903565,10.94406734375,9.825190244903563,10.94405734375,9.532800244903564,10.78948734375L3.1875002449035645,7.43501734375ZM3.1977492449035645,9.21014734375L9.517940244903563,12.55127734375C9.810330244903565,12.70587734375,10.160240244903564,12.70587734375,10.452630244903563,12.55127734375L16.789200244903565,9.201597343749999L17.052400244903566,9.37164734375C17.694000244903563,9.78643734375,17.652300244903564,10.73844734375,16.976800244903565,11.09551734375L10.467280244903565,14.53657734375C10.174880244903564,14.69117734375,9.824980244903564,14.69117734375,9.532590244903565,14.53657734375L3.0234332449035644,11.09551734375C2.3479692449035645,10.73843734375,2.3063472449035647,9.786427343749999,2.9479942449035645,9.37164734375L3.1977492449035645,9.21014734375ZM3.1975792449035643,12.89727734375L9.517770244903565,16.238377343750003C9.810170244903563,16.392977343749997,10.160070244903565,16.392977343749997,10.452470244903564,16.238377343750003L16.789100244903565,12.88867734375L17.052200244903567,13.05877734375C17.693800244903564,13.47357734375,17.652100244903565,14.42557734375,16.976600244903565,14.78267734375L10.467170244903564,18.22367734375C10.174770244903565,18.37827734375,9.824860244903565,18.37827734375,9.532460244903564,18.22367734375L3.0233332449035646,14.78267734375C2.3478702449035644,14.42557734375,2.3061632449035643,13.47357734375,2.9478102449035646,13.05877734375L3.1975792449035643,12.89727734375Z" fill-rule="evenodd" fill="#858DA6" fill-opacity="1"/>
    </g><rect class="myrect" width="10" height="20" fill="#ff00ff"></rect>
    </g>
</svg>

